<?xml version="1.0" encoding="UTF-8" standalone="no"?>
<!-- Created with Inkscape (http://www.inkscape.org/) -->

<svg
   xmlns:dc="http://purl.org/dc/elements/1.1/"
   xmlns:cc="http://creativecommons.org/ns#"
   xmlns:rdf="http://www.w3.org/1999/02/22-rdf-syntax-ns#"
   xmlns:svg="http://www.w3.org/2000/svg"
   xmlns="http://www.w3.org/2000/svg"
   xmlns:sodipodi="http://sodipodi.sourceforge.net/DTD/sodipodi-0.dtd"
   xmlns:inkscape="http://www.inkscape.org/namespaces/inkscape"
   inkscape:export-ydpi="384.03961"
   inkscape:export-xdpi="384.03961"
   inkscape:export-filename="E:\GitRPI\GamesRightMeow\static\images\logo.png"
   sodipodi:docname="cover.svg"
   inkscape:version="0.92.2 (5c3e80d, 2017-08-06)"
   id="svg1453"
   version="1.1"
   viewBox="0 0 238.12501 171.97917"
   height="650"
   width="900">
  <sodipodi:namedview
     fit-margin-bottom="0"
     fit-margin-right="0"
     fit-margin-left="0"
     fit-margin-top="0"
     inkscape:window-maximized="0"
     inkscape:window-y="0"
     inkscape:window-x="953"
     inkscape:window-height="1008"
     inkscape:window-width="958"
     inkscape:pagecheckerboard="true"
     showgrid="false"
     inkscape:current-layer="layer1"
     inkscape:document-units="px"
     inkscape:cy="212.26798"
     inkscape:cx="608.05975"
     inkscape:zoom="0.24748738"
     inkscape:pageshadow="2"
     inkscape:pageopacity="0.0"
     borderopacity="1.0"
     bordercolor="#666666"
     pagecolor="#ffffff"
     id="base"
     units="px" />
  <defs
     id="defs1447">
    <clipPath
       clipPathUnits="userSpaceOnUse"
       id="clipPath2662">
      <path
         inkscape:connector-curvature="0"
         id="path2664"
         d="m 236.03777,3.5527405 a 43.898116,43.898116 0 0 0 -1.12493,0.038413 43.898054,43.898054 0 0 0 -1.04292,0.036493 43.898116,43.898116 0 0 0 -2.41602,0.2128091 43.898054,43.898054 0 0 0 -2.17382,0.2637066 43.898116,43.898116 0 0 0 -2.15235,0.4100608 43.898054,43.898054 0 0 0 -2.12696,0.4784364 43.898116,43.898116 0 0 0 -2.10352,0.623062 43.898054,43.898054 0 0 0 -2.10155,0.6971997 43.898116,43.898116 0 0 0 -2.01368,0.8262678 43.898054,43.898054 0 0 0 -1.99218,0.89061 43.898116,43.898116 0 0 0 -1.98047,1.0527136 43.898054,43.898054 0 0 0 -1.85344,1.0625085 43.898116,43.898116 0 0 0 -1.86323,1.242091 43.898054,43.898054 0 0 0 -1.75203,1.251886 43.898116,43.898116 0 0 0 -1.70113,1.398432 43.898054,43.898054 0 0 0 -1.66021,1.460854 43.898116,43.898116 0 0 0 -1.51176,1.519626 43.898054,43.898054 0 0 0 -1.52538,1.636787 43.898116,43.898116 0 0 0 -1.36329,1.675775 43.898054,43.898054 0 0 0 -1.34561,1.771425 43.898116,43.898116 0 0 0 -1.19331,1.812526 43.898054,43.898054 0 0 0 -1.15028,1.873028 43.898116,43.898116 0 0 0 -1.02141,1.949201 43.898054,43.898054 0 0 0 -0.95322,1.972672 43.898116,43.898116 0 0 0 -0.82224,2.048825 43.898054,43.898054 0 0 0 -0.81243,2.224605 43.898116,43.898116 0 0 0 -0.32421,1.060588 43.898054,43.898054 0 0 0 -0.32037,1.044839 43.898054,43.898054 0 0 0 -0.28714,1.331977 43.898116,43.898116 0 0 0 -0.45711,2.124999 43.898054,43.898054 0 0 0 -0.33209,2.189456 43.898116,43.898116 0 0 0 -0.24411,2.177741 43.898054,43.898054 0 0 0 -0.10756,2.17968 43.898116,43.898116 0 0 0 -0.0691,1.35733 43.898116,43.898116 0 0 0 0.0384,1.087862 43.898054,43.898054 0 0 0 0.0384,1.109373 43.898116,43.898116 0 0 0 0.20897,2.371093 43.898054,43.898054 0 0 0 0.26563,2.183598 43.898116,43.898116 0 0 0 0.41217,2.164065 43.898054,43.898054 0 0 0 0.47652,2.119141 43.898116,43.898116 0 0 0 0.62882,2.121099 43.898054,43.898054 0 0 0 0.68549,2.068359 43.898116,43.898116 0 0 0 0.82607,2.023434 43.898054,43.898054 0 0 0 0.90617,2.021476 43.898116,43.898116 0 0 0 1.01564,1.912208 43.898054,43.898054 0 0 0 1.09958,1.917971 43.898116,43.898116 0 0 0 1.21674,1.822322 43.898054,43.898054 0 0 0 1.27532,1.785254 43.898116,43.898116 0 0 0 1.39056,1.689412 43.898054,43.898054 0 0 0 1.44913,1.648503 43.898116,43.898116 0 0 0 1.56054,1.552662 43.898054,43.898054 0 0 0 1.59376,1.486398 43.898116,43.898116 0 0 0 1.69729,1.378842 43.898054,43.898054 0 0 0 1.76566,1.341773 43.898116,43.898116 0 0 0 1.79486,1.183511 43.898054,43.898054 0 0 0 1.90433,1.167953 43.898116,43.898116 0 0 0 1.93359,1.011803 43.898054,43.898054 0 0 0 1.95899,0.94727 43.898116,43.898116 0 0 0 2.0664,0.83203 43.898054,43.898054 0 0 0 2.22851,0.812439 43.898116,43.898116 0 0 0 1.04887,0.322286 43.898054,43.898054 0 0 0 1.04887,0.320366 43.898054,43.898054 0 0 0 1.30855,0.281185 43.898116,43.898116 0 0 0 2.17578,0.468833 43.898054,43.898054 0 0 0 2.125,0.320366 43.898116,43.898116 0 0 0 2.2207,0.25007 43.898054,43.898054 0 0 0 2.15819,0.107557 43.898116,43.898116 0 0 0 1.37308,0.06914 43.898116,43.898116 0 0 0 1.10937,-0.03841 43.898054,43.898054 0 0 0 1.07615,-0.03841 43.898116,43.898116 0 0 0 2.40234,-0.212809 43.898054,43.898054 0 0 0 2.14649,-0.259865 43.898116,43.898116 0 0 0 2.20117,-0.417936 43.898054,43.898054 0 0 0 2.09961,-0.472674 43.898116,43.898116 0 0 0 2.10351,-0.623062 43.898054,43.898054 0 0 0 2.10157,-0.6972 43.898116,43.898116 0 0 0 2.02149,-0.828188 43.898054,43.898054 0 0 0 1.97655,-0.884848 43.898116,43.898116 0 0 0 1.98829,-1.056555 43.898054,43.898054 0 0 0 1.86515,-1.068271 43.898116,43.898116 0 0 0 1.82424,-1.216738 43.898054,43.898054 0 0 0 1.79294,-1.281272 43.898116,43.898116 0 0 0 1.68749,-1.388637 43.898054,43.898054 0 0 0 1.6485,-1.449138 43.898116,43.898116 0 0 0 1.54306,-1.550741 43.898054,43.898054 0 0 0 1.50388,-1.613355 43.898116,43.898116 0 0 0 1.375,-1.691333 43.898054,43.898054 0 0 0 1.32621,-1.744151 43.898116,43.898116 0 0 0 1.21674,-1.847675 43.898054,43.898054 0 0 0 1.13876,-1.859391 43.898116,43.898116 0 0 0 1.01565,-1.937484 43.898054,43.898054 0 0 0 0.95898,-1.986328 43.898116,43.898116 0 0 0 0.81244,-2.017595 43.898054,43.898054 0 0 0 0.82415,-2.253894 43.898116,43.898116 0 0 0 0.32229,-1.054635 43.898054,43.898054 0 0 0 0.32037,-1.044839 43.898054,43.898054 0 0 0 0.2833,-1.31834 43.898116,43.898116 0 0 0 0.46287,-2.158208 43.898054,43.898054 0 0 0 0.32805,-2.169923 43.898116,43.898116 0 0 0 0.2422,-2.158207 43.898054,43.898054 0 0 0 0.1114,-2.201172 43.898116,43.898116 0 0 0 0.0691,-1.355409 43.898116,43.898116 0 0 0 -0.0384,-1.109373 43.898054,43.898054 0 0 0 -0.0384,-1.076146 43.898116,43.898116 0 0 0 -0.21088,-2.382828 43.898054,43.898054 0 0 0 -0.26563,-2.189437 43.898116,43.898116 0 0 0 -0.4043,-2.1211 43.898054,43.898054 0 0 0 -0.48823,-2.17774 43.898116,43.898116 0 0 0 -0.61711,-2.082034 43.898054,43.898054 0 0 0 -0.69336,-2.085932 43.898116,43.898116 0 0 0 -0.82607,-2.023435 43.898054,43.898054 0 0 0 -0.90617,-2.021475 43.898116,43.898116 0 0 0 -1.01565,-1.912018 43.898054,43.898054 0 0 0 -1.1015,-1.921889 43.898116,43.898116 0 0 0 -1.2031,-1.804652 43.898054,43.898054 0 0 0 -1.28703,-1.80081 43.898116,43.898116 0 0 0 -1.38864,-1.687492 43.898054,43.898054 0 0 0 -1.44914,-1.648503 43.898116,43.898116 0 0 0 -1.56245,-1.554774 43.898054,43.898054 0 0 0 -1.58992,-1.480444 43.898116,43.898116 0 0 0 -1.72457,-1.402274 43.898054,43.898054 0 0 0 -1.72648,-1.312579 43.898116,43.898116 0 0 0 -1.82808,-1.205022 43.898054,43.898054 0 0 0 -1.88474,-1.1543161 43.898116,43.898116 0 0 0 -1.93555,-1.0137242 43.898054,43.898054 0 0 0 -1.95899,-0.9472694 43.898116,43.898116 0 0 0 -2.07226,-0.8339505 43.898054,43.898054 0 0 0 -2.21485,-0.8085979 43.898116,43.898116 0 0 0 -1.05867,-0.3242074 43.898054,43.898054 0 0 0 -1.04484,-0.320366 43.898054,43.898054 0 0 0 -1.3145,-0.2831053 43.898116,43.898116 0 0 0 -2.17186,-0.4667203 43.898054,43.898054 0 0 0 -2.1211,-0.3203661 43.898116,43.898116 0 0 0 -2.22266,-0.2500699 43.898054,43.898054 0 0 0 -2.15819,-0.1075569 43.898116,43.898116 0 0 0 -1.37308,-0.069144 z"
         style="opacity:1;fill:#d50000;fill-opacity:1;stroke:none;stroke-width:41.58065414;stroke-miterlimit:4;stroke-dasharray:none;stroke-dashoffset:0;stroke-opacity:1" />
    </clipPath>
  </defs>
  <metadata
     id="metadata1450">
    <rdf:RDF>
      <cc:Work
         rdf:about="">
        <dc:format>image/svg+xml</dc:format>
        <dc:type
           rdf:resource="http://purl.org/dc/dcmitype/StillImage" />
        <dc:title></dc:title>
      </cc:Work>
    </rdf:RDF>
  </metadata>
  <g
     transform="translate(-65.015726,3.0315637)"
     id="layer1"
     inkscape:groupmode="layer"
     inkscape:label="Layer 1">
    <rect
       style="opacity:1;vector-effect:none;fill:#ececec;fill-opacity:1;stroke:none;stroke-width:0.90111417;stroke-linecap:butt;stroke-linejoin:miter;stroke-miterlimit:4;stroke-dasharray:none;stroke-dashoffset:0;stroke-opacity:1"
       id="rect4529"
       width="238.125"
       height="171.97917"
       x="65.015724"
       y="-3.0315402" />
    <g
       transform="matrix(2.726632,0,0,2.726632,-92.428765,-343.69021)"
       id="g829">
      <g
         id="text831-7"
         style="font-style:normal;font-variant:normal;font-weight:bold;font-stretch:normal;font-size:14.35862827px;line-height:1.25;font-family:Roboto;-inkscape-font-specification:'Roboto Bold';text-align:center;letter-spacing:0px;word-spacing:0px;text-anchor:middle;fill:#212121;fill-opacity:1;stroke:none;stroke-width:0.35896569"
         aria-label="GAMES">
        <path
           id="path839"
           style="font-style:normal;font-variant:normal;font-weight:900;font-stretch:normal;font-family:Roboto;-inkscape-font-specification:'Roboto Heavy';text-align:center;text-anchor:middle;fill:#212121;fill-opacity:1;stroke-width:0.35896569"
           d="m 73.888043,157.09943 q -0.567895,0.631 -1.661619,1.0166 -1.093724,0.38561 -2.397779,0.38561 -2.00516,0 -3.204049,-1.22693 -1.198889,-1.22694 -1.283022,-3.41438 l -0.007,-0.8834 q 0,-1.50737 0.53284,-2.62914 0.532839,-1.12878 1.521397,-1.73173 0.995569,-0.60996 2.299624,-0.60996 1.907006,0 2.958663,0.87638 1.058668,0.86937 1.233945,2.6011 h -2.369735 q -0.126199,-0.85535 -0.546862,-1.21992 -0.420663,-0.36458 -1.191878,-0.36458 -0.925459,0 -1.430254,0.78524 -0.504796,0.78524 -0.511807,2.24354 v 0.61697 q 0,1.52841 0.518818,2.29962 0.525829,0.76421 1.647596,0.76421 0.960514,0 1.430254,-0.42768 v -1.58449 h -1.710696 v -1.68967 h 4.171575 z"
           inkscape:connector-curvature="0" />
        <path
           id="path841"
           style="font-style:normal;font-variant:normal;font-weight:900;font-stretch:normal;font-family:Roboto;-inkscape-font-specification:'Roboto Heavy';text-align:center;text-anchor:middle;fill:#212121;fill-opacity:1;stroke-width:0.35896569"
           d="m 81.116434,156.45441 h -3.372315 l -0.588928,1.90701 h -2.629143 l 3.7439,-10.20809 h 2.313646 l 3.771944,10.20809 h -2.643165 z m -2.783387,-1.89999 h 2.194459 l -1.100735,-3.54058 z"
           inkscape:connector-curvature="0" />
        <path
           id="path843"
           style="font-style:normal;font-variant:normal;font-weight:900;font-stretch:normal;font-family:Roboto;-inkscape-font-specification:'Roboto Heavy';text-align:center;text-anchor:middle;fill:#212121;fill-opacity:1;stroke-width:0.35896569"
           d="m 88.337814,148.15333 2.278591,7.10219 2.27158,-7.10219 h 3.239104 v 10.20809 H 93.6592 v -2.38376 l 0.238376,-4.87969 -2.467889,7.26345 h -1.626564 l -2.4749,-7.27046 0.238376,4.8867 v 2.38376 H 85.10572 v -10.20809 z"
           inkscape:connector-curvature="0" />
        <path
           id="path845"
           style="font-style:normal;font-variant:normal;font-weight:900;font-stretch:normal;font-family:Roboto;-inkscape-font-specification:'Roboto Heavy';text-align:center;text-anchor:middle;fill:#212121;fill-opacity:1;stroke-width:0.35896569"
           d="m 104.02854,154.0356 h -3.8701 v 2.43284 h 4.57121 v 1.89298 h -7.032087 v -10.20809 h 7.046107 v 1.9 h -4.58523 v 2.15239 h 3.8701 z"
           inkscape:connector-curvature="0" />
        <path
           id="path847"
           style="font-style:normal;font-variant:normal;font-weight:900;font-stretch:normal;font-family:Roboto;-inkscape-font-specification:'Roboto Heavy';text-align:center;text-anchor:middle;fill:#212121;fill-opacity:1;stroke-width:0.35896569"
           d="m 111.01155,155.64814 q 0,-0.53985 -0.38561,-0.84132 -0.3786,-0.30148 -1.33911,-0.62399 -0.96051,-0.3225 -1.57048,-0.62398 -1.98412,-0.97453 -1.98412,-2.67822 0,-0.84834 0.49077,-1.49335 0.49779,-0.65203 1.40221,-1.00959 0.90443,-0.36458 2.03321,-0.36458 1.10073,0 1.9701,0.39262 0.87638,0.39262 1.36014,1.12177 0.48377,0.72214 0.48377,1.65461 h -2.45387 q 0,-0.62399 -0.38561,-0.96753 -0.3786,-0.34354 -1.03062,-0.34354 -0.65904,0 -1.04465,0.29446 -0.3786,0.28746 -0.3786,0.73616 0,0.39262 0.42067,0.71513 0.42066,0.3155 1.47933,0.65904 1.05867,0.33653 1.73874,0.72915 1.65461,0.9535 1.65461,2.62914 0,1.33911 -1.0096,2.10332 -1.00959,0.7642 -2.76936,0.7642 -1.24096,0 -2.25055,-0.4417 -1.00258,-0.4487 -1.51438,-1.21992 -0.5048,-0.77822 -0.5048,-1.78782 h 2.46789 q 0,0.8203 0.42066,1.21292 0.42768,0.3856 1.38118,0.3856 0.60996,0 0.96051,-0.25941 0.35757,-0.26641 0.35757,-0.74317 z"
           inkscape:connector-curvature="0" />
      </g>
      <g
         id="text839-5"
         style="font-style:normal;font-variant:normal;font-weight:bold;font-stretch:normal;font-size:7.85889816px;line-height:1.25;font-family:Roboto;-inkscape-font-specification:'Roboto Bold';text-align:center;letter-spacing:-0.39294493px;word-spacing:0px;text-anchor:middle;fill:#212121;fill-opacity:1;stroke:none;stroke-width:0.19647245"
         aria-label="RIGHT MEOW">
        <path
           id="path820"
           style="font-style:normal;font-variant:normal;font-weight:500;font-stretch:normal;font-family:Roboto;-inkscape-font-specification:'Roboto Medium';text-align:center;letter-spacing:-0.39294493px;text-anchor:middle;fill:#212121;fill-opacity:1;stroke-width:0.19647245"
           d="m 69.558373,163.07227 h -1.082134 v 2.15275 h -0.97085 v -5.58718 h 1.964725 q 0.967013,0 1.49273,0.43362 0.525717,0.43362 0.525717,1.25481 0,0.56025 -0.272452,0.94015 -0.268615,0.37606 -0.752121,0.57944 l 1.254814,2.32928 v 0.0499 H 70.67888 Z m -1.082134,-0.77899 h 0.997712 q 0.491181,0 0.767471,-0.24559 0.276289,-0.24942 0.276289,-0.67921 0,-0.44897 -0.257103,-0.69456 -0.253265,-0.24559 -0.759796,-0.25326 h -1.024573 z"
           inkscape:connector-curvature="0" />
        <path
           id="path822"
           style="font-style:normal;font-variant:normal;font-weight:500;font-stretch:normal;font-family:Roboto;-inkscape-font-specification:'Roboto Medium';text-align:center;letter-spacing:-0.39294493px;text-anchor:middle;fill:#212121;fill-opacity:1;stroke-width:0.19647245"
           d="m 73.048829,165.22502 h -0.967013 v -5.58718 h 0.967013 z"
           inkscape:connector-curvature="0" />
        <path
           id="path824"
           style="font-style:normal;font-variant:normal;font-weight:500;font-stretch:normal;font-family:Roboto;-inkscape-font-specification:'Roboto Medium';text-align:center;letter-spacing:-0.39294493px;text-anchor:middle;fill:#212121;fill-opacity:1;stroke-width:0.19647245"
           d="m 78.139461,164.49976 q -0.303151,0.39525 -0.84038,0.59863 -0.53723,0.20338 -1.220278,0.20338 -0.702236,0 -1.243303,-0.3185 -0.541066,-0.3185 -0.836542,-0.90945 -0.291639,-0.59479 -0.303151,-1.38529 v -0.43746 q 0,-1.26632 0.606301,-1.97623 0.606302,-0.71375 1.692273,-0.71375 0.932477,0 1.481218,0.46048 0.548741,0.46048 0.660025,1.32773 H 77.18396 q -0.161169,-1.00923 -1.170392,-1.00923 -0.65235,0 -0.993875,0.472 -0.337687,0.46815 -0.349199,1.37761 v 0.42978 q 0,0.90561 0.379898,1.40831 0.383735,0.49885 1.062947,0.49885 0.744446,0 1.059109,-0.33768 v -1.09365 h -1.151206 v -0.73677 h 2.118219 z"
           inkscape:connector-curvature="0" />
        <path
           id="path826"
           style="font-style:normal;font-variant:normal;font-weight:500;font-stretch:normal;font-family:Roboto;-inkscape-font-specification:'Roboto Medium';text-align:center;letter-spacing:-0.39294493px;text-anchor:middle;fill:#212121;fill-opacity:1;stroke-width:0.19647245"
           d="m 83.256954,165.22502 h -0.967013 v -2.48277 h -2.498117 v 2.48277 h -0.97085 v -5.58718 h 0.97085 v 2.32543 h 2.498117 v -2.32543 h 0.967013 z"
           inkscape:connector-curvature="0" />
        <path
           id="path828"
           style="font-style:normal;font-variant:normal;font-weight:500;font-stretch:normal;font-family:Roboto;-inkscape-font-specification:'Roboto Medium';text-align:center;letter-spacing:-0.39294493px;text-anchor:middle;fill:#212121;fill-opacity:1;stroke-width:0.19647245"
           d="m 87.944664,160.42066 h -1.742158 v 4.80436 H 85.23933 v -4.80436 h -1.726808 v -0.78282 h 4.432142 z"
           inkscape:connector-curvature="0" />
        <path
           id="path830"
           style="font-style:normal;font-variant:normal;font-weight:500;font-stretch:normal;font-family:Roboto;-inkscape-font-specification:'Roboto Medium';text-align:center;letter-spacing:-0.39294493px;text-anchor:middle;fill:#212121;fill-opacity:1;stroke-width:0.19647245"
           d="m 90.88868,159.63784 1.611688,4.28248 1.607851,-4.28248 h 1.254814 v 5.58718 h -0.967012 v -1.84193 l 0.09593,-2.46358 -1.650061,4.30551 h -0.694561 l -1.646224,-4.30167 0.09593,2.45974 v 1.84193 h -0.967012 v -5.58718 z"
           inkscape:connector-curvature="0" />
        <path
           id="path832"
           style="font-style:normal;font-variant:normal;font-weight:500;font-stretch:normal;font-family:Roboto;-inkscape-font-specification:'Roboto Medium';text-align:center;letter-spacing:-0.39294493px;text-anchor:middle;fill:#212121;fill-opacity:1;stroke-width:0.19647245"
           d="M 99.379207,162.73074 H 97.08447 v 1.71914 h 2.682309 v 0.77514 H 96.11362 v -5.58718 h 3.626298 v 0.78282 H 97.08447 v 1.54261 h 2.294737 z"
           inkscape:connector-curvature="0" />
        <path
           id="path834"
           style="font-style:normal;font-variant:normal;font-weight:500;font-stretch:normal;font-family:Roboto;-inkscape-font-specification:'Roboto Medium';text-align:center;letter-spacing:-0.39294493px;text-anchor:middle;fill:#212121;fill-opacity:1;stroke-width:0.19647245"
           d="m 104.63101,162.57725 q 0,0.82119 -0.28397,1.44284 -0.28396,0.61782 -0.81352,0.95167 -0.52571,0.33001 -1.2126,0.33001 -0.67921,0 -1.2126,-0.33001 -0.52956,-0.33385 -0.8212,-0.94783 -0.287797,-0.61398 -0.291635,-1.41598 v -0.31467 q 0,-0.81735 0.287805,-1.44284 0.29164,-0.62549 0.81735,-0.9555 0.52956,-0.33385 1.21261,-0.33385 0.68305,0 1.20876,0.33001 0.52956,0.32618 0.81736,0.94399 0.2878,0.61398 0.29164,1.43133 z m -0.97085,-0.29164 q 0,-0.92864 -0.35304,-1.42366 -0.3492,-0.49502 -0.99387,-0.49502 -0.62933,0 -0.9862,0.49502 -0.35304,0.49118 -0.36071,1.39296 v 0.32234 q 0,0.92096 0.35687,1.42366 0.36071,0.50269 0.99771,0.50269 0.64468,0 0.99004,-0.49118 0.3492,-0.49118 0.3492,-1.43517 z"
           inkscape:connector-curvature="0" />
        <path
           id="path836"
           style="font-style:normal;font-variant:normal;font-weight:500;font-stretch:normal;font-family:Roboto;-inkscape-font-specification:'Roboto Medium';text-align:center;letter-spacing:-0.39294493px;text-anchor:middle;fill:#212121;fill-opacity:1;stroke-width:0.19647245"
           d="m 109.59501,163.84357 0.85957,-4.20573 h 0.96317 l -1.28935,5.58718 h -0.92864 l -1.06295,-4.0791 -1.08597,4.0791 h -0.93247 l -1.28935,-5.58718 h 0.96317 l 0.86724,4.19806 1.06679,-4.19806 h 0.81352 z"
           inkscape:connector-curvature="0" />
      </g>
      <g
         id="g822"
         transform="matrix(5.0817457,0,0,5.0817457,474.68654,263.3361)"
         inkscape:export-filename="E:\GitRPI\GamesRightMeow\static\favicon_16.png"
         inkscape:export-xdpi="96"
         inkscape:export-ydpi="96">
        <path
           id="path818"
           transform="matrix(0.05206544,0,0,0.05206544,-80.93045,-23.4991)"
           d="m 236.03711,3.5527344 a 43.898114,43.898114 0 0 0 -1.125,0.039063 43.898053,43.898053 0 0 0 -1.04297,0.037109 43.898114,43.898114 0 0 0 -2.41602,0.2128907 A 43.898053,43.898053 0 0 0 229.2793,4.1054688 43.898114,43.898114 0 0 0 227.12695,4.515625 43.898053,43.898053 0 0 0 225,4.9941406 a 43.898114,43.898114 0 0 0 -2.10352,0.6230469 43.898053,43.898053 0 0 0 -2.10156,0.6972656 43.898114,43.898114 0 0 0 -2.01367,0.8261719 43.898053,43.898053 0 0 0 -1.99219,0.890625 43.898114,43.898114 0 0 0 -1.98047,1.0527344 43.898053,43.898053 0 0 0 -1.85351,1.0624996 43.898114,43.898114 0 0 0 -1.86328,1.242188 43.898053,43.898053 0 0 0 -1.75196,1.251953 43.898114,43.898114 0 0 0 -1.70117,1.398437 43.898053,43.898053 0 0 0 -1.66015,1.460938 43.898114,43.898114 0 0 0 -1.51172,1.519531 43.898053,43.898053 0 0 0 -1.52539,1.636719 43.898114,43.898114 0 0 0 -1.36329,1.675781 43.898053,43.898053 0 0 0 -1.3457,1.771485 43.898114,43.898114 0 0 0 -1.19336,1.8125 43.898053,43.898053 0 0 0 -1.15039,1.873046 43.898114,43.898114 0 0 0 -1.02148,1.949219 43.898053,43.898053 0 0 0 -0.95313,1.972657 43.898114,43.898114 0 0 0 -0.82226,2.048828 43.898053,43.898053 0 0 0 -0.8125,2.224609 43.898114,43.898114 0 0 0 -0.32422,1.060547 43.898053,43.898053 0 0 0 -0.32031,1.044922 43.898053,43.898053 0 0 0 -0.28711,1.332031 43.898114,43.898114 0 0 0 -0.45704,2.125 43.898053,43.898053 0 0 0 -0.33203,2.189453 43.898114,43.898114 0 0 0 -0.24414,2.177734 43.898053,43.898053 0 0 0 -0.10742,2.179688 43.898114,43.898114 0 0 0 -0.0684,1.357422 43.898114,43.898114 0 0 0 0.0391,1.08789 43.898053,43.898053 0 0 0 0.0391,1.109376 43.898114,43.898114 0 0 0 0.20898,2.371093 43.898053,43.898053 0 0 0 0.26563,2.183594 43.898114,43.898114 0 0 0 0.41211,2.164063 43.898053,43.898053 0 0 0 0.47656,2.11914 43.898114,43.898114 0 0 0 0.6289,2.121094 43.898053,43.898053 0 0 0 0.68555,2.068359 43.898114,43.898114 0 0 0 0.82617,2.023438 43.898053,43.898053 0 0 0 0.90625,2.021484 43.898114,43.898114 0 0 0 1.01563,1.912109 43.898053,43.898053 0 0 0 1.09961,1.917969 43.898114,43.898114 0 0 0 1.21679,1.822266 43.898053,43.898053 0 0 0 1.2754,1.785156 43.898114,43.898114 0 0 0 1.39062,1.689453 43.898053,43.898053 0 0 0 1.44922,1.648438 43.898114,43.898114 0 0 0 1.56055,1.552734 43.898053,43.898053 0 0 0 1.59375,1.486328 43.898114,43.898114 0 0 0 1.69726,1.378906 43.898053,43.898053 0 0 0 1.76563,1.341797 43.898114,43.898114 0 0 0 1.79492,1.183594 43.898053,43.898053 0 0 0 1.90429,1.167969 43.898114,43.898114 0 0 0 1.9336,1.011719 43.898053,43.898053 0 0 0 1.95898,0.947265 43.898114,43.898114 0 0 0 2.06641,0.832032 43.898053,43.898053 0 0 0 2.22851,0.8125 43.898114,43.898114 0 0 0 1.04883,0.322265 43.898053,43.898053 0 0 0 1.04883,0.320313 43.898053,43.898053 0 0 0 1.3086,0.28125 43.898114,43.898114 0 0 0 2.17578,0.46875 43.898053,43.898053 0 0 0 2.125,0.320312 43.898114,43.898114 0 0 0 2.2207,0.25 43.898053,43.898053 0 0 0 2.1582,0.107422 43.898114,43.898114 0 0 0 1.37305,0.06836 43.898114,43.898114 0 0 0 1.10937,-0.03906 43.898053,43.898053 0 0 0 1.07618,-0.03906 43.898114,43.898114 0 0 0 2.40234,-0.21289 43.898053,43.898053 0 0 0 2.14648,-0.259766 43.898114,43.898114 0 0 0 2.20118,-0.417969 43.898053,43.898053 0 0 0 2.09961,-0.472656 43.898114,43.898114 0 0 0 2.10351,-0.623047 43.898053,43.898053 0 0 0 2.10156,-0.697265 43.898114,43.898114 0 0 0 2.02149,-0.828125 43.898053,43.898053 0 0 0 1.97656,-0.884766 43.898114,43.898114 0 0 0 1.98828,-1.056641 43.898053,43.898053 0 0 0 1.86524,-1.068359 43.898114,43.898114 0 0 0 1.82421,-1.216797 43.898053,43.898053 0 0 0 1.79297,-1.28125 43.898114,43.898114 0 0 0 1.6875,-1.388672 43.898053,43.898053 0 0 0 1.64844,-1.449219 43.898114,43.898114 0 0 0 1.54297,-1.550781 43.898053,43.898053 0 0 0 1.50391,-1.613281 43.898114,43.898114 0 0 0 1.375,-1.691406 43.898053,43.898053 0 0 0 1.32617,-1.744141 43.898114,43.898114 0 0 0 1.2168,-1.847656 43.898053,43.898053 0 0 0 1.13867,-1.859375 43.898114,43.898114 0 0 0 1.01562,-1.9375 43.898053,43.898053 0 0 0 0.95899,-1.986328 43.898114,43.898114 0 0 0 0.8125,-2.017578 43.898053,43.898053 0 0 0 0.82422,-2.253907 43.898114,43.898114 0 0 0 0.32226,-1.054687 43.898053,43.898053 0 0 0 0.32031,-1.044922 43.898053,43.898053 0 0 0 0.28321,-1.318359 43.898114,43.898114 0 0 0 0.46289,-2.158203 43.898053,43.898053 0 0 0 0.32812,-2.169922 43.898114,43.898114 0 0 0 0.24219,-2.158204 43.898053,43.898053 0 0 0 0.11133,-2.201171 43.898114,43.898114 0 0 0 0.0684,-1.355469 43.898114,43.898114 0 0 0 -0.0391,-1.109375 43.898053,43.898053 0 0 0 -0.0391,-1.076172 43.898114,43.898114 0 0 0 -0.21094,-2.382813 43.898053,43.898053 0 0 0 -0.26562,-2.189453 43.898114,43.898114 0 0 0 -0.4043,-2.121093 43.898053,43.898053 0 0 0 -0.48828,-2.177735 43.898114,43.898114 0 0 0 -0.61719,-2.082031 43.898053,43.898053 0 0 0 -0.69336,-2.085938 43.898114,43.898114 0 0 0 -0.82617,-2.023437 43.898053,43.898053 0 0 0 -0.90625,-2.021484 43.898114,43.898114 0 0 0 -1.01562,-1.91211 43.898053,43.898053 0 0 0 -1.10157,-1.921875 43.898114,43.898114 0 0 0 -1.20312,-1.804687 43.898053,43.898053 0 0 0 -1.28711,-1.800781 43.898114,43.898114 0 0 0 -1.38867,-1.6875 A 43.898053,43.898053 0 0 0 268,17.40625 a 43.898114,43.898114 0 0 0 -1.5625,-1.554688 43.898053,43.898053 0 0 0 -1.58984,-1.480468 43.898114,43.898114 0 0 0 -1.72461,-1.402344 43.898053,43.898053 0 0 0 -1.72657,-1.3125 43.898114,43.898114 0 0 0 -1.82812,-1.205078 43.898053,43.898053 0 0 0 -1.88477,-1.154297 43.898114,43.898114 0 0 0 -1.93554,-1.0136719 43.898053,43.898053 0 0 0 -1.95899,-0.9472656 43.898114,43.898114 0 0 0 -2.07226,-0.8339844 43.898053,43.898053 0 0 0 -2.21485,-0.8085937 43.898114,43.898114 0 0 0 -1.05859,-0.3242188 43.898053,43.898053 0 0 0 -1.04492,-0.3203125 43.898053,43.898053 0 0 0 -1.31446,-0.2832031 43.898114,43.898114 0 0 0 -2.17187,-0.4667969 43.898053,43.898053 0 0 0 -2.12109,-0.3203125 43.898114,43.898114 0 0 0 -2.22266,-0.25 43.898053,43.898053 0 0 0 -2.1582,-0.1074218 43.898114,43.898114 0 0 0 -1.37305,-0.068359 z"
           style="opacity:1;fill:#d50000;fill-opacity:1;stroke:none;stroke-width:41.58065414;stroke-miterlimit:4;stroke-dasharray:none;stroke-dashoffset:0;stroke-opacity:1"
           inkscape:connector-curvature="0" />
        <path
           sodipodi:nodetypes="cccccccccccccccccccsscccccscccccccccccccccccccccccccccccccccccccccccccccccc"
           inkscape:connector-curvature="0"
           id="path818-7"
           d="m -68.954802,-22.809837 c -0.05066,-1.1e-5 -0.09952,0.01174 -0.146637,0.03529 -0.07539,0.03767 -0.136181,0.08999 -0.182331,0.157009 -0.04614,0.06702 -0.08035,0.142073 -0.102605,0.225143 -0.02712,0.101068 -0.03426,0.211171 -0.02166,0.33029 0.0126,0.119123 0.05111,0.230016 0.115622,0.332629 0.06451,0.102603 0.149406,0.167971 0.254632,0.196161 0.08446,0.02262 0.164294,0.01509 0.239684,-0.02258 0.07538,-0.03767 0.136181,-0.08999 0.182331,-0.15701 0.04614,-0.06703 0.08035,-0.142072 0.102606,-0.225142 0.0275,-0.102455 0.03485,-0.21288 0.02207,-0.331307 -0.01279,-0.118428 -0.05109,-0.228877 -0.11491,-0.331307 -0.06381,-0.10242 -0.14904,-0.167896 -0.255649,-0.196466 -0.03167,-0.0085 -0.06275,-0.0127 -0.09315,-0.01271 z m 1.269095,0.345855 c -0.0666,0.0022 -0.133169,0.02094 -0.199719,0.05644 -0.106475,0.05679 -0.194827,0.133243 -0.265107,0.229413 -0.07029,0.09617 -0.119188,0.195502 -0.146638,0.297953 -0.02231,0.08307 -0.03019,0.165174 -0.02369,0.246294 0.0065,0.08112 0.03287,0.156856 0.07932,0.227176 0.04645,0.07032 0.111904,0.116787 0.196364,0.139417 0.105219,0.02819 0.211427,0.01399 0.318596,-0.04261 0.10717,-0.05661 0.19606,-0.133357 0.26653,-0.230227 0.07046,-0.09686 0.119253,-0.195765 0.146333,-0.296834 0.02231,-0.08307 0.03019,-0.165164 0.02369,-0.246294 -0.0065,-0.08112 -0.03297,-0.156856 -0.07942,-0.227176 -0.04645,-0.07032 -0.111913,-0.116787 -0.196364,-0.139417 -0.03998,-0.01071 -0.07993,-0.01543 -0.119893,-0.01413 z m -2.268914,0.461871 c -0.07501,-0.0035 -0.142598,0.01966 -0.20277,0.06976 -0.08023,0.0668 -0.13517,0.155567 -0.16484,0.266327 -0.02746,0.102454 -0.03142,0.214197 -0.0119,0.335171 0.01952,0.120978 0.06435,0.232105 0.134435,0.333239 0.07009,0.101137 0.157755,0.165734 0.262971,0.193924 0.106606,0.02856 0.199923,0.0099 0.279953,-0.05624 0.08004,-0.06611 0.134957,-0.154549 0.164637,-0.26531 0.02746,-0.102453 0.03144,-0.214516 0.0121,-0.336188 -0.01934,-0.121666 -0.06403,-0.233111 -0.13413,-0.334256 -0.0701,-0.101138 -0.157744,-0.165836 -0.262971,-0.194026 -0.02665,-0.0071 -0.05249,-0.01122 -0.07749,-0.01241 z m 2.744825,0.744607 c -0.06718,0.0013 -0.135563,0.01831 -0.205109,0.05115 -0.111274,0.05254 -0.205628,0.126707 -0.283208,0.222397 -0.07757,0.0957 -0.13017,0.194789 -0.15762,0.29724 -0.02965,0.110759 -0.02629,0.214716 0.01,0.311986 0.03626,0.09727 0.107652,0.160167 0.214261,0.188738 0.105223,0.02819 0.213526,0.01603 0.324799,-0.03651 0.111275,-0.05254 0.205614,-0.126268 0.283004,-0.221278 0.0774,-0.09501 0.129764,-0.193773 0.157214,-0.296224 0.02967,-0.11076 0.02652,-0.215145 -0.0096,-0.313105 -0.03608,-0.09796 -0.10745,-0.161194 -0.214058,-0.189754 -0.03946,-0.01057 -0.07938,-0.01543 -0.11969,-0.01464 z m -1.596741,0.27436 c -0.08701,-0.0028 -0.182281,0.0093 -0.285954,0.0362 -0.165874,0.0431 -0.322843,0.109334 -0.470724,0.198804 -0.147881,0.08948 -0.280128,0.196863 -0.396796,0.322155 -0.116673,0.125289 -0.190893,0.247527 -0.222803,0.366594 -0.05416,0.202136 0.0454,0.337142 0.298766,0.405032 0.102454,0.02746 0.249484,0.03381 0.441133,0.01912 0.191646,-0.01468 0.333187,-0.0097 0.424557,0.01475 0.08722,0.02337 0.205231,0.08831 0.353984,0.194941 0.148753,0.106636 0.270207,0.172567 0.364356,0.197787 0.05954,0.01596 0.113144,0.02631 0.160874,0.03091 0.04774,0.0047 0.09612,0.0028 0.145112,-0.0056 0.049,-0.0084 0.09083,-0.03059 0.12569,-0.0665 0.03484,-0.03592 0.06083,-0.08569 0.07789,-0.149383 0.04267,-0.159216 0.0262,-0.352465 -0.04942,-0.579737 -0.07562,-0.227265 -0.190207,-0.433788 -0.343714,-0.619599 -0.15351,-0.185812 -0.311927,-0.300645 -0.4753,-0.344425 -0.04621,-0.01238 -0.09545,-0.01937 -0.147654,-0.02105 z"
           style="opacity:1;fill:#ffffff;fill-opacity:1;stroke:none;stroke-width:2.16491508;stroke-miterlimit:4;stroke-dasharray:none;stroke-dashoffset:0;stroke-opacity:1" />
      </g>
    </g>
  </g>
</svg>
