<?xml version="1.0" encoding="UTF-8" standalone="no"?>
<svg
   xmlns:dc="http://purl.org/dc/elements/1.1/"
   xmlns:cc="http://creativecommons.org/ns#"
   xmlns:rdf="http://www.w3.org/1999/02/22-rdf-syntax-ns#"
   xmlns:svg="http://www.w3.org/2000/svg"
   xmlns="http://www.w3.org/2000/svg"
   xmlns:sodipodi="http://sodipodi.sourceforge.net/DTD/sodipodi-0.dtd"
   xmlns:inkscape="http://www.inkscape.org/namespaces/inkscape"
   viewBox="0 0 960 540"
   version="1.1"
   id="svg4"
   sodipodi:docname="blog.svg"
   width="960"
   height="540"
   inkscape:version="0.92.2 (5c3e80d, 2017-08-06)">
  <metadata
     id="metadata10">
    <rdf:RDF>
      <cc:Work
         rdf:about="">
        <dc:format>image/svg+xml</dc:format>
        <dc:type
           rdf:resource="http://purl.org/dc/dcmitype/StillImage" />
        <dc:title />
      </cc:Work>
    </rdf:RDF>
  </metadata>
  <defs
     id="defs8" />
  <sodipodi:namedview
     pagecolor="#ffffff"
     bordercolor="#666666"
     borderopacity="1"
     objecttolerance="10"
     gridtolerance="10"
     guidetolerance="10"
     inkscape:pageopacity="0"
     inkscape:pageshadow="2"
     inkscape:window-width="1278"
     inkscape:window-height="690"
     id="namedview6"
     showgrid="false"
     inkscape:zoom="0.4609375"
     inkscape:cx="88.339155"
     inkscape:cy="245.44192"
     inkscape:window-x="73"
     inkscape:window-y="124"
     inkscape:window-maximized="0"
     inkscape:current-layer="svg4" />
  <rect
     style="opacity:1;vector-effect:none;fill:#ececec;fill-opacity:1;stroke:none;stroke-width:15;stroke-linecap:butt;stroke-linejoin:miter;stroke-miterlimit:4;stroke-dasharray:none;stroke-dashoffset:0;stroke-opacity:1"
     id="rect4506"
     width="1058.7119"
     height="642.16949"
     x="-19.525423"
     y="-39.254238" />
  <g
     id="g841"
     transform="matrix(0.40299303,0,0,0.40299303,276.11159,162.68904)">
    <path
       style="fill:#f44336;fill-opacity:1;stroke-width:0.76952326"
       id="path2-8"
       d="M 629.09742,230.7437 H 382.84996 c -68.02583,0 -123.12361,55.09786 -123.12361,123.12373 0,68.02587 55.09778,123.12373 123.12361,123.12373 34.47465,0 65.56347,-14.15923 87.87958,-36.93712 h 70.41145 c 22.3161,22.77789 53.48179,36.93712 87.87957,36.93712 68.02583,0 123.12373,-55.09786 123.12373,-123.12373 0,-68.02587 -55.02092,-123.12373 -123.04687,-123.12373 z M 456.7242,369.2579 c 0,5.07886 -4.15533,9.23428 -9.23422,9.23428 h -40.01527 v 40.01521 c 0,5.07885 -4.15533,9.23428 -9.23422,9.23428 h -30.78094 c -5.07889,0 -9.23433,-4.15543 -9.23433,-9.23428 v -40.01521 h -40.01516 c -5.0789,0 -9.23434,-4.15542 -9.23434,-9.23428 v -30.78094 c 0,-5.07886 4.15544,-9.23428 9.23434,-9.23428 h 40.01516 v -40.01521 c 0,-5.07885 4.15544,-9.23428 9.23433,-9.23428 h 30.78094 c 5.07889,0 9.23422,4.15543 9.23422,9.23428 v 40.01521 h 40.01527 c 5.07889,0 9.23422,4.15542 9.23422,9.23428 z m 141.59229,52.32758 c -20.39233,0 -36.93712,-16.54475 -36.93712,-36.93712 0,-20.39236 16.54479,-36.93712 36.93712,-36.93712 20.39245,0 36.93712,16.54476 36.93712,36.93712 0,20.39237 -16.54467,36.93712 -36.93712,36.93712 z m 61.56186,-61.56186 c -20.39233,0 -36.93711,-16.54476 -36.93711,-36.93712 0,-20.39237 16.54478,-36.93712 36.93711,-36.93712 20.39245,0 36.93724,16.54475 36.93724,36.93712 0,20.39236 -16.54479,36.93712 -36.93724,36.93712 z"
       inkscape:connector-curvature="0" />
    <g
       aria-label="BLOG"
       style="font-style:normal;font-variant:normal;font-weight:normal;font-stretch:normal;font-size:200.37994385px;line-height:1.25;font-family:Roboto;-inkscape-font-specification:Roboto;letter-spacing:0px;word-spacing:0px;fill:#f44336;fill-opacity:1;stroke:none;stroke-width:5.0094986"
       id="text836">
      <path
         d="M 267.17208,199.99312 V 57.535502 h 49.8993 q 25.92807,0 39.3324,9.97986 13.40432,9.882019 13.40432,29.059006 0,10.469072 -5.3813,18.492092 -5.3813,7.92519 -14.96979,11.64317 10.95828,2.73957 17.22015,11.05612 6.35972,8.31655 6.35972,20.35109 0,20.54677 -13.1108,31.11368 -13.1108,10.56691 -37.37556,10.7626 z m 29.35253,-62.03168 v 38.45181 h 25.14534 q 10.37123,0 16.14389,-4.89209 5.87051,-4.98993 5.87051,-13.69784 0,-19.56836 -20.25325,-19.86188 z m 0,-20.74246 h 21.72088 q 22.21008,-0.39137 22.21008,-17.709359 0,-9.686335 -5.67483,-13.893531 -5.57698,-4.305038 -17.70936,-4.305038 h -20.54677 z"
         style="font-style:normal;font-variant:normal;font-weight:bold;font-stretch:normal;font-family:Roboto;-inkscape-font-specification:'Roboto Bold';fill:#f44336;stroke-width:5.0094986"
         id="path819" />
      <path
         d="m 424.50165,176.41325 h 62.32521 v 23.57987 H 395.14912 V 57.535502 h 29.35253 z"
         style="font-style:normal;font-variant:normal;font-weight:bold;font-stretch:normal;font-family:Roboto;-inkscape-font-specification:'Roboto Bold';fill:#f44336;stroke-width:5.0094986"
         id="path821" />
      <path
         d="m 614.31468,131.99309 q 0,21.03598 -7.43598,36.88635 -7.43597,15.85036 -21.3295,24.46044 -13.79569,8.61007 -31.70073,8.61007 -17.70937,0 -31.6029,-8.51223 -13.89353,-8.51223 -21.52519,-24.26476 -7.63165,-15.85037 -7.7295,-36.39714 v -7.0446 q 0,-21.03599 7.53382,-36.984194 7.63166,-16.04605 21.42735,-24.558284 13.89353,-8.610075 31.70073,-8.610075 17.8072,0 31.60289,8.610075 13.89353,8.512234 21.42735,24.558284 7.63166,15.948204 7.63166,36.886344 z m -29.7439,-6.45756 q 0,-22.40576 -8.02302,-34.048934 -8.02303,-11.643171 -22.89498,-11.643171 -14.77411,0 -22.79713,11.545329 -8.02303,11.447486 -8.12087,33.657566 v 6.94677 q 0,21.81871 8.02303,33.85325 8.02302,12.03454 23.09066,12.03454 14.7741,0 22.69929,-11.54533 7.92518,-11.64317 8.02302,-33.85325 z"
         style="font-style:normal;font-variant:normal;font-weight:bold;font-stretch:normal;font-family:Roboto;-inkscape-font-specification:'Roboto Bold';fill:#f44336;stroke-width:5.0094986"
         id="path823" />
      <path
         d="m 748.55359,181.99023 q -7.92519,9.49065 -22.40577,14.77411 -14.48058,5.18561 -32.0921,5.18561 -18.49209,0 -32.48347,-8.02302 -13.89353,-8.12087 -21.52519,-23.48203 -7.53381,-15.36115 -7.7295,-36.10361 v -9.68633 q 0,-21.32951 7.14245,-36.886351 7.24029,-15.654683 20.74246,-23.873392 13.6,-8.31655 31.79857,-8.31655 25.34102,0 39.62592,12.132379 14.2849,12.034538 16.92663,35.125194 h -28.5698 q -1.95684,-12.23022 -8.70792,-17.905043 -6.65324,-5.674822 -18.39425,-5.674822 -14.96979,0 -22.79713,11.251803 -7.82734,11.251802 -7.92519,33.461882 v 9.09929 q 0,22.40576 8.51224,33.85325 8.51223,11.44749 24.94965,11.44749 16.53526,0 23.57987,-7.04461 V 146.7672 h -26.71081 v -21.62304 h 56.06334 z"
         style="font-style:normal;font-variant:normal;font-weight:bold;font-stretch:normal;font-family:Roboto;-inkscape-font-specification:'Roboto Bold';fill:#f44336;stroke-width:5.0094986"
         id="path825" />
    </g>
  </g>
</svg>
