<?xml version="1.0" encoding="UTF-8" standalone="no"?>
<svg
   xmlns:dc="http://purl.org/dc/elements/1.1/"
   xmlns:cc="http://creativecommons.org/ns#"
   xmlns:rdf="http://www.w3.org/1999/02/22-rdf-syntax-ns#"
   xmlns:svg="http://www.w3.org/2000/svg"
   xmlns="http://www.w3.org/2000/svg"
   xmlns:sodipodi="http://sodipodi.sourceforge.net/DTD/sodipodi-0.dtd"
   xmlns:inkscape="http://www.inkscape.org/namespaces/inkscape"
   viewBox="0 0 960 540"
   version="1.1"
   id="svg4"
   sodipodi:docname="blog.svg"
   width="960"
   height="540"
   inkscape:version="0.92.2 (5c3e80d, 2017-08-06)">
  <metadata
     id="metadata10">
    <rdf:RDF>
      <cc:Work
         rdf:about="">
        <dc:format>image/svg+xml</dc:format>
        <dc:type
           rdf:resource="http://purl.org/dc/dcmitype/StillImage" />
        <dc:title />
      </cc:Work>
    </rdf:RDF>
  </metadata>
  <defs
     id="defs8" />
  <sodipodi:namedview
     pagecolor="#ffffff"
     bordercolor="#666666"
     borderopacity="1"
     objecttolerance="10"
     gridtolerance="10"
     guidetolerance="10"
     inkscape:pageopacity="0"
     inkscape:pageshadow="2"
     inkscape:window-width="1278"
     inkscape:window-height="690"
     id="namedview6"
     showgrid="false"
     inkscape:zoom="0.4609375"
     inkscape:cx="458.23746"
     inkscape:cy="245.44192"
     inkscape:window-x="73"
     inkscape:window-y="124"
     inkscape:window-maximized="0"
     inkscape:current-layer="svg4" />
  <rect
     style="opacity:1;vector-effect:none;fill:#ececec;fill-opacity:1;stroke:none;stroke-width:15;stroke-linecap:butt;stroke-linejoin:miter;stroke-miterlimit:4;stroke-dasharray:none;stroke-dashoffset:0;stroke-opacity:1"
     id="rect4506"
     width="1058.7119"
     height="642.16949"
     x="-19.525423"
     y="-39.254238" />
  <g
     id="g841"
     transform="matrix(0.40299303,0,0,0.40299303,276.11159,162.68904)">
    <path
       style="fill:#f44336;fill-opacity:1;stroke-width:0.76952326"
       id="path2-8"
       d="M 629.09742,230.7437 H 382.84996 c -68.02583,0 -123.12361,55.09786 -123.12361,123.12373 0,68.02587 55.09778,123.12373 123.12361,123.12373 34.47465,0 65.56347,-14.15923 87.87958,-36.93712 h 70.41145 c 22.3161,22.77789 53.48179,36.93712 87.87957,36.93712 68.02583,0 123.12373,-55.09786 123.12373,-123.12373 0,-68.02587 -55.02092,-123.12373 -123.04687,-123.12373 z M 456.7242,369.2579 c 0,5.07886 -4.15533,9.23428 -9.23422,9.23428 h -40.01527 v 40.01521 c 0,5.07885 -4.15533,9.23428 -9.23422,9.23428 h -30.78094 c -5.07889,0 -9.23433,-4.15543 -9.23433,-9.23428 v -40.01521 h -40.01516 c -5.0789,0 -9.23434,-4.15542 -9.23434,-9.23428 v -30.78094 c 0,-5.07886 4.15544,-9.23428 9.23434,-9.23428 h 40.01516 v -40.01521 c 0,-5.07885 4.15544,-9.23428 9.23433,-9.23428 h 30.78094 c 5.07889,0 9.23422,4.15543 9.23422,9.23428 v 40.01521 h 40.01527 c 5.07889,0 9.23422,4.15542 9.23422,9.23428 z m 141.59229,52.32758 c -20.39233,0 -36.93712,-16.54475 -36.93712,-36.93712 0,-20.39236 16.54479,-36.93712 36.93712,-36.93712 20.39245,0 36.93712,16.54476 36.93712,36.93712 0,20.39237 -16.54467,36.93712 -36.93712,36.93712 z m 61.56186,-61.56186 c -20.39233,0 -36.93711,-16.54476 -36.93711,-36.93712 0,-20.39237 16.54478,-36.93712 36.93711,-36.93712 20.39245,0 36.93724,16.54475 36.93724,36.93712 0,20.39236 -16.54479,36.93712 -36.93724,36.93712 z"
       inkscape:connector-curvature="0" />
    <text
       id="text836"
       y="199.99312"
       x="254.45265"
       style="font-style:normal;font-variant:normal;font-weight:normal;font-stretch:normal;font-size:200.37994385px;line-height:1.25;font-family:Roboto;-inkscape-font-specification:Roboto;letter-spacing:0px;word-spacing:0px;fill:#f44336;fill-opacity:1;stroke:none;stroke-width:5.0094986"
       xml:space="preserve"><tspan
         style="font-style:normal;font-variant:normal;font-weight:bold;font-stretch:normal;font-family:Roboto;-inkscape-font-specification:'Roboto Bold';fill:#f44336;stroke-width:5.0094986"
         y="199.99312"
         x="254.45265"
         id="tspan834"
         sodipodi:role="line">BLOG</tspan></text>
  </g>
</svg>
